RSLDJ_XZ.mot
version=1
datacolumns 20
datarows 36
range 2.280000 2.630000
inDegrees=yes
endheader
time	pelvis_tilt	pelvis_list	pelvis_rotation	hip_flexion_r	hip_adduction_r	hip_rotation_r	knee_angle_r	ankle_angle_r	hip_flexion_l	hip_adduction_l	hip_rotation_l	knee_angle_l	ankle_angle_l	pelvis_tx	pelvis_ty	pelvis_tz	lumbar_bending	lumbar_rotation	lumbar_extension
2.280000	-14.534963	2.306865	10.267287	22.426467	1.594847	-6.741277	-6.163055	5.129847	37.814374	-3.496128	-4.102083	-53.921756	2.844941	0.401952	0.973881	0.289657	2.465766	-0.516326	4.987074
2.290000	-14.473789	1.881161	10.361918	22.449780	1.942764	-6.568390	-6.123851	5.061122	36.443982	-3.701401	-3.928088	-51.822143	2.812082	0.401365	0.973218	0.289008	2.428629	-0.147333	5.189155
2.300000	-14.410673	1.415497	10.441767	22.515059	2.334353	-6.356235	-6.130590	5.002422	35.085776	-3.929663	-3.749221	-49.701212	2.864967	0.400687	0.972503	0.288339	2.404858	0.245534	5.390883
2.310000	-14.342242	0.917477	10.519532	22.618382	2.755934	-6.114100	-6.186293	4.963139	33.726995	-4.169870	-3.556649	-47.539229	3.012036	0.399914	0.971728	0.287657	2.379528	0.660610	5.582681
2.320000	-14.263680	0.394814	10.606429	22.754991	3.195331	-5.853547	-6.293109	4.955061	32.356815	-4.413634	-3.348349	-45.321196	3.260928	0.399029	0.970890	0.286970	2.338806	1.097454	5.753387
2.330000	-14.171403	-0.144905	10.711315	22.922908	3.642160	-5.590922	-6.454070	4.990430	30.973773	-4.655275	-3.132530	-43.046250	3.618090	0.398006	0.969990	0.286288	2.271752	1.554713	5.895318
2.340000	-14.066167	-0.692712	10.842095	23.124890	4.085093	-5.347933	-6.672856	5.077947	29.590035	-4.888890	-2.925673	-40.731589	4.087502	0.396811	0.969038	0.285624	2.169630	2.026977	6.007771
2.350000	-13.954539	-1.235614	11.007842	23.366495	4.507843	-5.148795	-6.950288	5.217817	28.230051	-5.104038	-2.745395	-38.408938	4.667938	0.395420	0.968053	0.284992	2.024096	2.501393	6.097156
2.360000	-13.847226	-1.754916	11.219038	23.650447	4.887450	-5.014457	-7.278541	5.398693	26.924112	-5.283696	-2.601809	-36.116348	5.348418	0.393829	0.967068	0.284412	1.826733	2.956035	6.173543
2.370000	-13.754532	-2.227611	11.484875	23.970110	5.197162	-4.956301	-7.636614	5.598682	25.699738	-5.406801	-2.493385	-33.889920	6.103370	0.392053	0.966121	0.283914	1.571335	3.362316	6.245022
2.380000	-13.681772	-2.630335	11.809452	24.306911	5.412012	-4.971771	-7.991840	5.791547	24.574974	-5.453454	-2.411417	-31.758688	6.889987	0.390120	0.965246	0.283531	1.257677	3.690873	6.312782
2.390000	-13.628275	-2.943813	12.189163	24.635814	5.513627	-5.042739	-8.309904	5.957151	23.557657	-5.409212	-2.351145	-29.744295	7.651959	0.388058	0.964474	0.283297	0.894659	3.917868	6.370167
2.400000	-13.590199	-3.156620	12.611969	24.937228	5.493426	-5.136558	-8.570288	6.090678	22.650615	-5.267504	-2.321001	-27.865315	8.332884	0.385888	0.963824	0.283229	0.501608	4.029455	6.405960
2.410000	-13.563695	-3.267737	13.059485	25.207995	5.354521	-5.212633	-8.779673	6.204470	21.858214	-5.031032	-2.340335	-26.142822	8.890979	0.383615	0.963308	0.283335	0.105987	4.023858	6.408525
2.420000	-13.546311	-3.286474	13.512796	25.465465	5.110277	-5.236120	-8.976250	6.322026	21.189877	-4.711025	-2.424524	-24.602165	9.302513	0.381231	0.962923	0.283608	-0.263753	3.910190	6.368407
2.430000	-13.537228	-3.229989	13.958643	25.743848	4.780010	-5.192320	-9.222454	6.468220	20.659548	-4.325039	-2.569963	-23.270143	9.558296	0.378718	0.962657	0.284036	-0.586578	3.704922	6.279899
2.440000	-13.535527	-3.120793	14.391636	26.083499	4.386016	-5.095967	-9.588198	6.658402	20.280545	-3.896464	-2.751392	-22.169796	9.660453	0.376052	0.962486	0.284602	-0.853291	3.429243	6.141294
2.450000	-13.538005	-2.984391	14.812213	26.517606	3.952407	-4.989120	-10.131297	6.891869	20.058203	-3.454560	-2.930518	-21.314236	9.621435	0.373215	0.962376	0.285291	-1.065602	3.107529	5.954754
2.460000	-13.539881	-2.845956	15.222412	27.063323	3.503199	-4.922329	-10.883183	7.155328	19.985497	-3.031451	-3.069836	-20.701079	9.467730	0.370201	0.962290	0.286086	-1.231543	2.764944	5.727393
2.470000	-13.536062	-2.725980	15.623097	27.717980	3.058587	-4.932514	-11.844184	7.430024	20.041906	-2.655545	-3.146334	-20.309243	9.237687	0.367025	0.962194	0.286971	-1.360998	2.424186	5.470201
2.480000	-13.520853	-2.636554	16.014288	28.459211	2.631384	-5.032267	-12.987784	7.694166	20.194593	-2.344642	-3.159310	-20.099454	8.968105	0.363727	0.962062	0.287929	-1.463128	2.102712	5.193560
2.490000	-13.488753	-2.581229	16.396914	29.251173	2.226864	-5.208951	-14.270787	7.921812	20.404076	-2.103425	-3.129164	-20.019319	8.683593	0.360361	0.961885	0.288941	-1.544495	1.812182	4.904694
2.500000	-13.436915	-2.559239	16.774960	30.055402	1.846105	-5.430314	-15.645639	8.083577	20.633457	-1.926690	-3.088023	-20.011697	8.395525	0.356992	0.961666	0.289993	-1.607821	1.560759	4.609690
2.510000	-13.367055	-2.571268	17.157554	30.841211	1.489722	-5.655124	-17.071860	8.152650	20.856665	-1.805461	-3.065945	-20.023469	8.106232	0.353689	0.961425	0.291078	-1.652543	1.356602	4.317544
2.520000	-13.284979	-2.623285	17.559708	31.591424	1.159759	-5.843757	-18.524114	8.115220	21.061923	-1.732695	-3.077765	-20.012231	7.815445	0.350513	0.961193	0.292193	-1.677031	1.210054	4.042384
2.530000	-13.197574	-2.727538	17.999856	32.301906	0.861406	-5.966450	-19.994316	7.976680	21.249828	-1.707917	-3.117908	-19.949983	7.524777	0.347513	0.961018	0.293343	-1.680689	1.133909	3.801841
2.540000	-13.108732	-2.901532	18.493920	32.976143	0.606453	-6.012329	-21.486589	7.753904	21.427893	-1.741009	-3.169775	-19.823495	7.233646	0.344719	0.960952	0.294532	-1.663879	1.142539	3.612545
2.550000	-13.016976	-3.164573	19.048874	33.619112	0.414761	-5.991498	-23.009461	7.465095	21.604826	-1.852011	-3.220277	-19.632035	6.935333	0.342143	0.961052	0.295768	-1.625875	1.249306	3.485826
2.560000	-12.916457	-3.531575	19.659722	34.233832	0.309584	-5.920703	-24.570223	7.131610	21.786990	-2.064131	-3.264339	-19.383890	6.624780	0.339780	0.961364	0.297061	-1.562751	1.461880	3.425934
2.570000	-12.800079	-4.005053	20.312327	34.819721	0.307179	-5.807168	-26.171825	6.779394	21.976555	-2.390859	-3.302702	-19.091988	6.303438	0.337604	0.961913	0.298421	-1.467712	1.776344	3.429809
2.580000	-12.663293	-4.568921	20.991425	35.372352	0.405276	-5.644448	-27.812811	6.438376	22.171207	-2.823138	-3.339619	-18.769084	5.974559	0.335579	0.962696	0.299858	-1.335132	2.172894	3.488044
2.590000	-12.507122	-5.190259	21.688785	35.885318	0.579336	-5.418966	-29.489352	6.142836	22.366400	-3.326661	-3.380499	-18.424172	5.638663	0.333664	0.963683	0.301386	-1.165481	2.618229	3.587750
2.600000	-12.337950	-5.829459	22.406425	36.352005	0.790805	-5.125284	-31.195068	5.915909	22.558159	-3.852647	-3.430860	-18.061063	5.285047	0.331827	0.964835	0.303021	-0.967061	3.075310	3.715674
2.610000	-12.164076	-6.451655	23.154541	36.765504	1.000534	-4.776392	-32.919181	5.755254	22.743836	-4.353977	-3.492502	-17.679308	4.889606	0.330063	0.966106	0.304776	-0.754081	3.513953	3.859899
2.620000	-11.991372	-7.033098	23.946971	37.117408	1.178259	-4.398225	-34.647196	5.645489	22.920710	-4.796695	-3.555794	-17.276730	4.432214	0.328386	0.967452	0.306667	-0.543492	3.916014	4.010548
2.630000	-11.820043	-7.561767	24.796027	37.396629	1.306206	-4.019039	-36.363133	5.574982	23.083913	-5.164088	-3.596285	-16.851776	3.912225	0.326827	0.968828	0.308699	-0.351823	4.274693	4.160130
